<svg width="18" height="24" viewBox="0 0 18 24" fill="none" xmlns="http://www.w3.org/2000/svg"
     preserveAspectRatio="xMidYMid meet">
    <g fill="#009688" transform="matrix(0.00473101 0 0 -0.00473101 6.21945 5.82162)">
        <path
            d="m439.6,1162.28c-263,-43 -518,-184 -737,-407c-332,-339 -643,-950 -808,-1589c-37,-146 -96,-420 -102,-480c-3,-29 8,-38 433,-322l436,-291l310,310l310,310l468,-312l468,-312l311,310l311,310l298,-149c233,-117 297,-145 297,-132c0,40 -43,308 -71,448c-112,548 -293,1046 -518,1417c-300,496 -612,769 -991,867c-94,25 -324,36 -415,22z"/>
        <path
            d="m-27.4,-1929.72l-308,-309l-457,305l-458,305l-6,-67c-11,-113 -10,-338 2,-441c53,-483 304,-940 684,-1244c559,-447 1321,-535 1965,-227c390,187 692,489 879,879c113,237 181,515 181,745l0,55l-307,154l-308,154l-311,-310l-311,-310l-466,311c-257,171 -468,311 -469,310c-2,0 -141,-140 -310,-310z"/>
    </g>
</svg>
