<svg width="40" height="6" viewBox="0 0 40 6" fill="none" xmlns="http://www.w3.org/2000/svg"
     preserveAspectRatio="xMidYMid meet">
    <g>
        <g fill="#009688" transform="matrix(0.00113563 0 0 -0.00113563 1.55967 1.50568)">
            <path
                d="m471.74,1162.28c-263,-43 -518,-184 -737,-407c-332,-339 -643,-950 -808,-1589c-37,-146 -96,-420 -102,-480c-3,-29 8,-38 433,-322l436,-291l310,310l310,310l468,-312l468,-312l311,310l311,310l298,-149c233,-117 297,-145 297,-132c0,40 -43,308 -71,448c-112,548 -293,1046 -518,1417c-300,496 -612,769 -991,867c-94,25 -324,36 -415,22z"/>
            <path
                d="m4.74,-1929.72l-308,-309l-457,305l-458,305l-6,-67c-11,-113 -10,-338 2,-441c53,-483 304,-940 684,-1244c559,-447 1321,-535 1965,-227c390,187 692,489 879,879c113,237 181,515 181,745l0,55l-307,154l-308,154l-311,-310l-311,-310l-466,311c-257,171 -468,311 -469,310c-2,0 -141,-140 -310,-310z"/>
        </g>
        <g fill="#009688">
            <path
                d="m7.89,4.2l-0.42,0.17l-0.37,-0.95l-1.52,0l-0.37,0.94l-0.38,-0.16l1.3,-3.2l0.49,0l1.28,3.2l0,0l0,0l-0.01,0l0.01,0l-0.01,0zm-1.55,-2.75l-0.63,1.59l1.24,0l-0.62,-1.59l0.01,0z"/>
            <path
                d="m7.34,5.42l0.1,-0.35q0.05,0.03 0.15,0.05q0.09,0.02 0.19,0.02q0.2,0 0.35,-0.13q0.16,-0.13 0.3,-0.5l0.11,-0.28l-0.22,0l-0.96,-2.16l0.37,-0.17l0.92,2.05l0.71,-2.03l0.39,0.15l-0.91,2.46q-0.14,0.37 -0.3,0.59q-0.16,0.21 -0.35,0.3q-0.19,0.09 -0.44,0.09q-0.15,0 -0.26,-0.03q-0.11,-0.03 -0.17,-0.06l0,0l0,0l0.01,0l0,0.01l0.01,-0.01z"/>
            <path
                d="m9.94,3.55l0,-1.6l0.43,0l0,1.55q0,0.29 0.13,0.44q0.13,0.15 0.36,0.15q0.19,0 0.37,-0.07q0.18,-0.07 0.32,-0.21l0,-1.86l0.43,0l0,1.82q0,0.2 0.09,0.27q0.09,0.06 0.19,0.06l-0.1,0.33q-0.44,0 -0.54,-0.35q-0.17,0.17 -0.38,0.28q-0.21,0.11 -0.47,0.11q-0.21,0 -0.41,-0.1q-0.19,-0.1 -0.31,-0.29q-0.12,-0.2 -0.12,-0.53l0,0l0,0l0.01,0.01l0,-0.01z"/>
            <path
                d="m12.54,5.35l0.16,-0.37q0.12,0.1 0.27,0.15q0.15,0.05 0.37,0.05q0.34,0 0.52,-0.18q0.19,-0.18 0.19,-0.57l0,-0.3q-0.1,0.12 -0.28,0.21q-0.18,0.1 -0.43,0.1q-0.28,0 -0.53,-0.15q-0.26,-0.15 -0.41,-0.43q-0.16,-0.28 -0.16,-0.67q0,-0.37 0.15,-0.66q0.15,-0.29 0.42,-0.46q0.26,-0.17 0.57,-0.17q0.21,0 0.37,0.07q0.17,0.07 0.3,0.17l0,-0.19l0.39,0l0,2.4q0,0.41 -0.15,0.66q-0.15,0.26 -0.39,0.37q-0.26,0.12 -0.59,0.12q-0.21,0 -0.43,-0.05q-0.2,-0.05 -0.37,-0.16l0,0l0,0l0.02,0l0,0.05l0.01,0.01zm1.49,-1.55l0,-1.28q-0.1,-0.07 -0.26,-0.14q-0.15,-0.06 -0.34,-0.06q-0.19,0 -0.37,0.1q-0.17,0.1 -0.28,0.3q-0.11,0.19 -0.11,0.48q0,0.27 0.11,0.47q0.11,0.2 0.28,0.31q0.17,0.11 0.37,0.11q0.19,0 0.34,-0.09q0.15,-0.09 0.25,-0.2l0,0l0,0l0.01,0l0,0.01l0,-0.01z"/>
            <path
                d="m27.56,3.46l-1.73,0q0.04,0.34 0.23,0.54q0.2,0.19 0.52,0.19q0.21,0 0.38,-0.04q0.17,-0.04 0.32,-0.12l0.1,0.37q-0.17,0.07 -0.38,0.13q-0.21,0.05 -0.48,0.05q-0.53,0 -0.83,-0.34q-0.31,-0.34 -0.31,-0.95q0,-0.37 0.14,-0.66q0.14,-0.29 0.39,-0.46q0.26,-0.17 0.59,-0.17q0.35,0 0.59,0.15q0.23,0.15 0.35,0.42q0.12,0.26 0.12,0.57q0,0.17 -0.01,0.32l0,0l0,0l0,-0.01l0.01,0.01zm-1.73,-0.34l1.35,0q0,-0.36 -0.18,-0.55q-0.18,-0.19 -0.5,-0.19q-0.28,0 -0.46,0.19q-0.18,0.19 -0.21,0.55l0,0l0,0.01l0,-0.01z"/>
            <path
                d="m16.94,4.28l0.22,-0.37q0.17,0.15 0.38,0.23q0.21,0.1 0.5,0.1q0.34,0 0.54,-0.15q0.2,-0.15 0.2,-0.38q0,-0.14 -0.05,-0.25q-0.05,-0.11 -0.21,-0.21q-0.17,-0.1 -0.48,-0.21q-0.34,-0.13 -0.54,-0.27q-0.2,-0.14 -0.29,-0.31q-0.09,-0.17 -0.09,-0.42q0,-0.23 0.13,-0.43q0.13,-0.19 0.38,-0.31q0.26,-0.12 0.62,-0.12q0.3,0 0.52,0.05q0.23,0.05 0.46,0.17l-0.17,0.38q-0.16,-0.1 -0.37,-0.16q-0.21,-0.06 -0.46,-0.06q-0.31,0 -0.49,0.13q-0.18,0.13 -0.18,0.32q0,0.13 0.05,0.21q0.05,0.1 0.2,0.19q0.15,0.1 0.46,0.2q0.37,0.14 0.59,0.29q0.21,0.15 0.3,0.33q0.1,0.18 0.1,0.41q0,0.31 -0.15,0.52q-0.15,0.21 -0.43,0.33q-0.28,0.12 -0.62,0.12q-0.34,0 -0.63,-0.1q-0.28,-0.1 -0.48,-0.25l0,0l0,0l-0.02,0l0.01,0.02z"/>
            <path
                d="m19.92,5.6l-0.43,0l0,-2.87q0,-0.16 -0.07,-0.23q-0.07,-0.07 -0.2,-0.07l0.1,-0.33q0.44,0 0.54,0.34q0.05,-0.07 0.15,-0.17q0.11,-0.1 0.27,-0.17q0.16,-0.07 0.36,-0.07q0.28,0 0.53,0.15q0.26,0.15 0.39,0.44q0.15,0.28 0.15,0.68q0,0.39 -0.15,0.68q-0.15,0.3 -0.39,0.46q-0.25,0.17 -0.52,0.17q-0.21,0 -0.41,-0.09q-0.19,-0.09 -0.31,-0.2l0,1.27l0,0l-0.01,0l0,0.02l0,-0.01zm0,-2.87l0,1.22q0.13,0.13 0.28,0.21q0.16,0.09 0.35,0.09q0.32,0 0.52,-0.26q0.2,-0.26 0.2,-0.66q0,-0.28 -0.1,-0.48q-0.1,-0.2 -0.27,-0.31q-0.17,-0.11 -0.37,-0.11q-0.2,0 -0.37,0.1q-0.17,0.1 -0.26,0.21l0,0l0,0l0.01,-0.01l0.01,0z"/>
            <path
                d="m22.47,4.53l-0.43,0l0,-2.46l0.43,0l0,2.46zm-0.21,-2.88q-0.13,0 -0.21,-0.1q-0.09,-0.1 -0.09,-0.21q0,-0.14 0.07,-0.21q0.07,-0.07 0.21,-0.07q0.13,0 0.21,0.09q0.09,0.09 0.09,0.21q0,0.13 -0.07,0.21q-0.07,0.09 -0.21,0.09l0,0l0,-0.01z"/>
            <path
                d="m24.6,2.33l0,-1.28l0.43,0l0,2.9q0,0.18 0.09,0.23q0.09,0.05 0.19,0.05l-0.1,0.33q-0.45,0 -0.54,-0.36q-0.1,0.15 -0.29,0.27q-0.19,0.13 -0.47,0.13q-0.3,0 -0.55,-0.16q-0.26,-0.16 -0.39,-0.44q-0.15,-0.29 -0.15,-0.67q0,-0.37 0.15,-0.66q0.15,-0.3 0.39,-0.46q0.26,-0.17 0.54,-0.17q0.25,0 0.43,0.1q0.18,0.1 0.28,0.2l0,0l0,0l0,-0.01l-0.01,0zm0,1.6l0,-1.22q-0.1,-0.12 -0.26,-0.21q-0.16,-0.1 -0.35,-0.1q-0.22,0 -0.39,0.13q-0.17,0.13 -0.27,0.33q-0.1,0.2 -0.1,0.47q0,0.26 0.1,0.47q0.1,0.2 0.28,0.32q0.17,0.12 0.38,0.12q0.17,0 0.33,-0.09q0.16,-0.09 0.27,-0.21l0.01,-0.01z"/>
            <path
                d="m16.97,3.41l-1.73,0q0.04,0.34 0.23,0.54q0.2,0.19 0.52,0.19q0.21,0 0.38,-0.04q0.17,-0.04 0.32,-0.12l0.1,0.37q-0.17,0.07 -0.38,0.13q-0.21,0.05 -0.48,0.05q-0.53,0 -0.83,-0.34q-0.31,-0.34 -0.31,-0.95q0,-0.37 0.14,-0.66q0.14,-0.29 0.39,-0.46q0.26,-0.17 0.59,-0.17q0.35,0 0.59,0.15q0.23,0.15 0.35,0.42q0.12,0.26 0.12,0.57q0,0.17 -0.01,0.32l0,0l0,0l0,-0.01l0.01,0.01zm-1.73,-0.34l1.35,0q0,-0.36 -0.18,-0.55q-0.18,-0.19 -0.5,-0.19q-0.28,0 -0.46,0.19q-0.18,0.19 -0.21,0.55l0,0l0,0.01l0,-0.01z"/>
            <path
                d="m28.39,4.52l-0.43,0l0,-2.46l0.42,0l0,0.53q0.06,-0.16 0.17,-0.29q0.1,-0.14 0.26,-0.21q0.16,-0.09 0.37,-0.09q0.07,0 0.15,0.01q0.07,0.01 0.12,0.02l-0.13,0.44q-0.1,-0.03 -0.21,-0.03q-0.17,0 -0.33,0.1q-0.16,0.1 -0.26,0.31q-0.1,0.21 -0.1,0.53l0,1.15l0,0l0,0l-0.01,-0.01l-0.02,0z"/>
            <path d="m30.38,4.55l-0.45,0l0,-2.91l-1.01,0l0,-0.39l2.48,0l0,0.39l-1.01,0l0,2.91l0,0l-0.01,0z"/>
            <path
                d="m32.03,4.66q-0.35,0 -0.63,-0.17q-0.28,-0.17 -0.44,-0.46q-0.16,-0.29 -0.16,-0.67q0,-0.39 0.16,-0.68q0.16,-0.29 0.44,-0.45q0.28,-0.16 0.63,-0.16q0.34,0 0.62,0.16q0.28,0.16 0.44,0.44q0.17,0.29 0.17,0.68q0,0.39 -0.16,0.68q-0.16,0.29 -0.44,0.46q-0.28,0.16 -0.63,0.16l0,0l0,0l0,0.01zm0,-0.37q0.37,0 0.59,-0.26q0.21,-0.26 0.21,-0.66q0,-0.25 -0.1,-0.46q-0.1,-0.2 -0.28,-0.33q-0.18,-0.13 -0.41,-0.13q-0.37,0 -0.59,0.25q-0.21,0.25 -0.21,0.66q0,0.25 0.1,0.46q0.1,0.21 0.28,0.34q0.18,0.13 0.41,0.13l0,0z"/>
            <path
                d="m34.68,4.61q-0.35,0 -0.63,-0.17q-0.28,-0.17 -0.44,-0.46q-0.16,-0.29 -0.16,-0.67q0,-0.39 0.16,-0.68q0.16,-0.29 0.44,-0.45q0.28,-0.16 0.63,-0.16q0.34,0 0.62,0.16q0.28,0.16 0.44,0.44q0.17,0.29 0.17,0.68q0,0.39 -0.16,0.68q-0.16,0.29 -0.44,0.46q-0.28,0.16 -0.63,0.16l0,0l0,0l0,0.01zm0,-0.37q0.37,0 0.59,-0.26q0.21,-0.26 0.21,-0.66q0,-0.25 -0.1,-0.46q-0.1,-0.2 -0.28,-0.33q-0.18,-0.13 -0.41,-0.13q-0.37,0 -0.59,0.25q-0.21,0.25 -0.21,0.66q0,0.25 0.1,0.46q0.1,0.21 0.28,0.34q0.18,0.13 0.41,0.13l0,0z"/>
            <path
                d="m36.24,3.74l0,-2.73l0.43,0l0,2.69q0,0.26 0.11,0.37q0.11,0.13 0.3,0.13q0.1,0 0.18,-0.02q0.09,-0.02 0.15,-0.05l0.1,0.34q-0.09,0.03 -0.21,0.06q-0.13,0.03 -0.28,0.03q-0.21,0 -0.39,-0.09q-0.17,-0.09 -0.28,-0.27q-0.1,-0.19 -0.1,-0.48l0,0l0,0l-0.01,0l0.01,0.01l-0.01,0.01z"/>
            <path
                d="m37.57,4.31l0.18,-0.35q0.13,0.1 0.31,0.17q0.19,0.07 0.39,0.07q0.27,0 0.39,-0.09q0.14,-0.09 0.14,-0.22q0,-0.1 -0.05,-0.17q-0.05,-0.07 -0.18,-0.15q-0.13,-0.07 -0.38,-0.16q-0.34,-0.12 -0.52,-0.28q-0.17,-0.17 -0.17,-0.46q0,-0.28 0.26,-0.48q0.26,-0.19 0.68,-0.19q0.23,0 0.42,0.05q0.19,0.05 0.33,0.13l-0.12,0.35q-0.13,-0.07 -0.29,-0.13q-0.17,-0.05 -0.36,-0.05q-0.25,0 -0.37,0.1q-0.13,0.1 -0.13,0.21q0,0.12 0.1,0.19q0.1,0.07 0.39,0.17q0.47,0.16 0.66,0.34q0.19,0.19 0.19,0.47q0,0.33 -0.27,0.52q-0.27,0.19 -0.71,0.19q-0.28,0 -0.5,-0.07q-0.22,-0.07 -0.37,-0.19l0,0l0,0l-0.01,0.01l0,0.01l-0.01,0.01z"/>
        </g>
    </g>
</svg>
